<?xml version="1.0" standalone="no"?><!DOCTYPE svg PUBLIC "-//W3C//DTD SVG 1.1//EN" "http://www.w3.org/Graphics/SVG/1.1/DTD/svg11.dtd"><svg t="1513753108792" class="icon" style="" viewBox="0 0 1025 1024" version="1.1" xmlns="http://www.w3.org/2000/svg" p-id="2100" xmlns:xlink="http://www.w3.org/1999/xlink" width="32.03125" height="32"><defs><style type="text/css"></style></defs><path d="M512.180224 0c-282.770432 0-512 229.229568-512 512s229.229568 512 512 512c282.769408 0 512-229.229568 512-512S794.948608 0 512.180224 0zM512.048128 181.248c33.933312-0.072704 61.499392 27.375616 61.572096 61.308928 0.070656 33.931264-27.37664 61.498368-61.309952 61.570048s-61.498368-27.377664-61.570048-61.309952C450.666496 208.88576 478.114816 181.31968 512.048128 181.248zM512.669696 832.592896c-33.932288 0.07168-61.484032-20.501504-61.538304-45.949952l-0.784384-368.638976c-0.055296-25.449472 27.409408-46.138368 61.340672-46.211072 33.932288-0.07168 61.484032 20.50048 61.538304 45.949952l0.785408 368.64C574.066688 811.831296 546.601984 832.520192 512.669696 832.592896z" p-id="2101" fill="#d55363"></path></svg>